Coordinates
version=1
nRows=21
nColumns=12
inDegrees=yes

Units are S.I. units (second, meters, Newtons, ...)
Angles are in degrees

endheader
time	SC_y	SC_z	SC_x	AC_y	AC_z	AC_x	GH_y	GH_z	GH_yy	EL_x	PS_y
       0.0              -20.38          20.31          14.52          64.12           3.87         -10.21          34.71          6.731         -177.4          126.2          82.92
  0.000528              -20.38          20.31          14.52          64.11          3.867          -10.2          34.69          6.737         -177.4          126.2          82.92
  0.001056              -20.38          20.31          14.53          64.11          3.865          -10.2          34.66          6.743         -177.3          126.2          82.92
  0.001584              -20.39          20.31          14.53          64.11          3.862          -10.2          34.62          6.749         -177.3          126.2          82.92
  0.002112              -20.39          20.31          14.53           64.1          3.858          -10.2          34.59          6.756         -177.2          126.2          82.91
   0.00264               -20.4          20.31          14.53           64.1          3.855         -10.19          34.55          6.764         -177.2          126.2          82.91
  0.003168              -20.41          20.32          14.53           64.1          3.851         -10.19          34.51          6.772         -177.1          126.2          82.91
  0.003696              -20.41          20.32          14.54          64.09          3.847         -10.18          34.47           6.78         -177.0          126.2          82.91
  0.004224              -20.42          20.32          14.54          64.09          3.843         -10.18          34.43          6.789         -177.0          126.2           82.9
  0.004752              -20.43          20.32          14.54          64.08          3.839         -10.18          34.38          6.799         -176.9          126.2           82.9
   0.00528              -20.43          20.33          14.54          64.08          3.834         -10.17          34.33          6.809         -176.8          126.2           82.9
  0.005808              -20.44          20.33          14.55          64.07          3.829         -10.17          34.27           6.82         -176.7          126.1           82.9
  0.006336              -20.45          20.33          14.55          64.07          3.823         -10.16          34.21          6.832         -176.6          126.1          82.89
  0.006864              -20.46          20.33          14.55          64.06          3.817         -10.15          34.15          6.845         -176.5          126.1          82.89
  0.007392              -20.47          20.34          14.56          64.05          3.811         -10.15          34.08           6.86         -176.4          126.1          82.88
   0.00792              -20.48          20.34          14.56          64.05          3.803         -10.14           34.0          6.875         -176.2          126.1          82.88
  0.008448              -20.49          20.35          14.56          64.04          3.796         -10.13          33.92          6.891         -176.1          126.1          82.87
  0.008976              -20.51          20.35          14.57          64.03          3.787         -10.13          33.83           6.91         -176.0          126.0          82.87
  0.009504              -20.52          20.36          14.57          64.02          3.778         -10.12          33.73          6.929         -175.8          126.0          82.86
   0.01003              -20.54          20.36          14.58          64.01          3.768         -10.11          33.63          6.951         -175.6          126.0          82.86
   0.01056              -20.55          20.37          14.59           64.0          3.757          -10.1          33.51          6.975         -175.4          126.0          82.85
